# xmcd
#
# Track frame offsets:
#	150
#	18587
#	39537
#	59037
#	79862
#	96612
#	111537
#	126987
#	146337
#	163887
#	182262
#	198762
#
# Disc length: 2847 seconds
# Revision: 7
# Processed by: cddbd v1.5.2PL0 Copyright (c) Steve Scherf et al.
# Submitted via: dBpowerAMP V12.0
#
DISCID=ae0b1d0c
DTITLE=Taj Mahal - Blue Light Boogie
DYEAR=1999
DGENRE=Blues
TTITLE0=River of Love
TTITLE1=Honky Tonk Women
TTITLE2=Don't Call Us
TTITLE3=Take a Giant Step
TTITLE4=Down Home Girl
TTITLE5=Feats Don't Fail Me Now
TTITLE6=Dark Angel
TTITLE7=Big Legged Mamas Are Back in Style
TTITLE8=John the Revelator
TTITLE9=Blue Light Boogie
TTITLE10=She Caught the Katy (And Left Me a Mule to Ride)
TTITLE11=Mercedes Benz
EXTD=
EXTT0=
EXTT1=
EXTT2=
EXTT3=
EXTT4=
EXTT5=
EXTT6=
EXTT7=
EXTT8=
EXTT9=
EXTT10=
EXTT11=
PLAYORDER=
